<?xml version="1.0" encoding="UTF-8"?> <svg xmlns="http://www.w3.org/2000/svg" width="46" height="36" viewBox="0 0 46 36" fill="none"> <path d="M7.77049 11.0287H2.48769V13.7241H7.77049V11.0287Z" fill="#E64456"></path> <path d="M7.77049 21.81H2.48769V24.5053H7.77049V21.81Z" fill="#E64456"></path> <path d="M7.77057 16.4194H0V19.1147H7.77057V16.4194Z" fill="#E64456"></path> <path d="M28.2329 0C18.4362 0 10.4659 7.97029 10.4659 17.767C10.4659 27.5637 18.4361 35.534 28.2329 35.534C38.0297 35.534 46 27.5637 46 17.767C46 7.97029 38.0297 0 28.2329 0ZM28.2329 32.8387C19.9224 32.8387 13.1612 26.0775 13.1612 17.767C13.1612 9.45649 19.9224 2.69531 28.2329 2.69531C36.5435 2.69531 43.3047 9.45649 43.3047 17.767C43.3047 26.0775 36.5435 32.8387 28.2329 32.8387Z" fill="#E64456"></path> <path d="M29.103 18.4367V9.73114H26.4076V19.8615L33.3533 24.5948L34.8712 22.3675L29.103 18.4367Z" fill="#E64456"></path> </svg> 