<?xml version="1.0" encoding="UTF-8"?> <svg xmlns="http://www.w3.org/2000/svg" width="70" height="23" viewBox="0 0 70 23" fill="none"> <path d="M27.7842 15.3216H30.0726V12.5179H32.9218V15.3216H35.2102V7.7441H32.9218V10.5326H30.0726V7.7441H27.7842V15.3216Z" fill="#888888"></path> <path d="M40.1546 15.4883C41.1851 15.4883 41.8823 14.973 42.2157 14.5638V15.3216H44.5041V7.7441H42.2157V8.50185C41.8823 8.09266 41.1851 7.57739 40.1546 7.57739C38.1693 7.57739 36.6386 9.39599 36.6386 11.5328C36.6386 13.6697 38.1693 15.4883 40.1546 15.4883ZM40.6699 13.4121C39.6393 13.4121 38.9422 12.624 38.9422 11.5328C38.9422 10.4417 39.6393 9.65362 40.6699 9.65362C41.7004 9.65362 42.3975 10.4417 42.3975 11.5328C42.3975 12.624 41.7004 13.4121 40.6699 13.4121Z" fill="#888888"></path> <path d="M46.7967 15.4883C48.1304 15.4883 49.4943 14.6244 49.4943 12.4724V9.7294H51.5705V15.3216H53.8589V7.7441H47.2059V12.23C47.2059 13.2605 46.8573 13.503 46.2663 13.503C46.0996 13.503 45.9026 13.4878 45.7359 13.4727V15.4125C46.0238 15.4731 46.3269 15.4883 46.7967 15.4883Z" fill="#888888"></path> <path d="M59.2569 15.4883C61.4393 15.4883 63.2427 13.7606 63.2427 11.5328C63.2427 9.30506 61.4393 7.57739 59.2569 7.57739C57.0746 7.57739 55.2712 9.30506 55.2712 11.5328C55.2712 13.7606 57.0746 15.4883 59.2569 15.4883ZM59.2569 13.3514C58.287 13.3514 57.5747 12.624 57.5747 11.5328C57.5747 10.4417 58.287 9.71424 59.2569 9.71424C60.2269 9.71424 60.9391 10.4417 60.9391 11.5328C60.9391 12.624 60.2269 13.3514 59.2569 13.3514Z" fill="#888888"></path> <path d="M64.6505 15.3216H66.9389V9.7294H70.0001V7.7441H64.6505V15.3216Z" fill="#888888"></path> <circle cx="11.3662" cy="11.3662" r="11.3662" fill="#888888"></circle> <path d="M8.15588 15.8326C10.0366 15.8326 11.3114 14.6966 11.3114 13.1315C11.3114 12.1091 10.7308 11.4527 10.1249 11.1498C10.592 10.7837 11.059 10.0895 11.059 9.2186C11.059 7.81754 10.0366 6.58057 8.11802 6.58057C6.55287 6.58057 4.96248 7.67869 4.96248 9.58464H6.86842C6.8558 8.97878 7.36069 8.46127 8.11802 8.46127C8.71126 8.46127 9.15303 8.83993 9.14041 9.38269C9.12779 9.95068 8.77437 10.3546 7.96655 10.3546H7.28495V11.8819H8.06753C8.87534 11.8819 9.40548 12.3236 9.39285 12.9674C9.38023 13.5606 8.90059 13.9519 8.15588 13.9519C7.33544 13.9519 6.76744 13.5606 6.67909 12.7402H4.78577C4.84888 14.7976 6.48976 15.8326 8.15588 15.8326Z" fill="white"></path> <path d="M13.9998 13.7062L16.9164 9.02588H15.9118L12.9952 13.7062H13.9998ZM16.6701 13.7589C17.37 13.7589 17.9469 13.1722 17.9469 12.4603C17.9469 11.7418 17.37 11.1617 16.6701 11.1617C15.9636 11.1617 15.3933 11.7418 15.3933 12.4603C15.3933 13.1722 15.9636 13.7589 16.6701 13.7589ZM16.6701 12.9283C16.4173 12.9283 16.2164 12.7174 16.2164 12.4603C16.2164 12.2032 16.4173 11.9923 16.6701 11.9923C16.9228 11.9923 17.1173 12.2032 17.1173 12.4603C17.1173 12.7174 16.9228 12.9283 16.6701 12.9283ZM13.2415 11.5704C13.9415 11.5704 14.5183 10.9837 14.5183 10.2718C14.5183 9.55324 13.9415 8.97314 13.2415 8.97314C12.535 8.97314 11.9647 9.55324 11.9647 10.2718C11.9647 10.9837 12.535 11.5704 13.2415 11.5704ZM13.2415 10.7398C12.9822 10.7398 12.7878 10.5289 12.7878 10.2718C12.7878 10.0147 12.9822 9.80373 13.2415 9.80373C13.4942 9.80373 13.6887 10.0147 13.6887 10.2718C13.6887 10.5289 13.4942 10.7398 13.2415 10.7398Z" fill="white"></path> </svg> 