<?xml version="1.0" encoding="UTF-8"?> <svg xmlns="http://www.w3.org/2000/svg" width="99" height="32" viewBox="0 0 99 32" fill="none"> <path d="M39.1111 21.5681H42.3324V17.6214H46.3431V21.5681H49.5644V10.9014H46.3431V14.8267H42.3324V10.9014H39.1111V21.5681Z" fill="#FBFBFC"></path> <path d="M56.5246 21.8027C57.9752 21.8027 58.9566 21.0774 59.4259 20.5014V21.5681H62.6472V10.9014H59.4259V11.9681C58.9566 11.3921 57.9752 10.6667 56.5246 10.6667C53.7299 10.6667 51.5752 13.2267 51.5752 16.2347C51.5752 19.2427 53.7299 21.8027 56.5246 21.8027ZM57.2499 18.8801C55.7992 18.8801 54.8179 17.7707 54.8179 16.2347C54.8179 14.6987 55.7992 13.5894 57.2499 13.5894C58.7006 13.5894 59.6819 14.6987 59.6819 16.2347C59.6819 17.7707 58.7006 18.8801 57.2499 18.8801Z" fill="#FBFBFC"></path> <path d="M65.8746 21.8027C67.7519 21.8027 69.6719 20.5867 69.6719 17.5574V13.6961H72.5946V21.5681H75.8159V10.9014H66.4506V17.2161C66.4506 18.6667 65.9599 19.0081 65.1279 19.0081C64.8932 19.0081 64.6159 18.9867 64.3812 18.9654V21.6961C64.7866 21.7814 65.2132 21.8027 65.8746 21.8027Z" fill="#FBFBFC"></path> <path d="M83.4146 21.8027C86.4866 21.8027 89.0252 19.3707 89.0252 16.2347C89.0252 13.0987 86.4866 10.6667 83.4146 10.6667C80.3426 10.6667 77.8039 13.0987 77.8039 16.2347C77.8039 19.3707 80.3426 21.8027 83.4146 21.8027ZM83.4146 18.7947C82.0492 18.7947 81.0466 17.7707 81.0466 16.2347C81.0466 14.6987 82.0492 13.6747 83.4146 13.6747C84.7799 13.6747 85.7826 14.6987 85.7826 16.2347C85.7826 17.7707 84.7799 18.7947 83.4146 18.7947Z" fill="#FBFBFC"></path> <path d="M91.0069 21.5681H94.2282V13.6961H98.5376V10.9014H91.0069V21.5681Z" fill="#FBFBFC"></path> <path d="M22.8274 17.5403C22.8274 17.9023 23.1102 18.1992 23.4661 18.1992C23.8219 18.1992 24.0956 17.9023 24.0956 17.5403C24.0956 17.1785 23.8219 16.8816 23.4661 16.8816C23.1102 16.8816 22.8274 17.1785 22.8274 17.5403Z" fill="#FBFBFC"></path> <path d="M18.001 14.4595C18.001 14.8215 18.2747 15.1184 18.6396 15.1184C18.9955 15.1184 19.2692 14.8215 19.2692 14.4595C19.2692 14.0977 18.9955 13.8008 18.6396 13.8008C18.2747 13.8008 18.001 14.0977 18.001 14.4595Z" fill="#FBFBFC"></path> <path fill-rule="evenodd" clip-rule="evenodd" d="M32 16C32 24.8367 24.8365 32 16 32C7.16345 32 0 24.8367 0 16C0 7.16333 7.16345 0 16 0C24.8365 0 32 7.16333 32 16ZM11.4808 22.2871C14.1283 22.2871 15.9229 20.688 15.9229 18.4849C15.9229 17.0457 15.1055 16.1216 14.2527 15.6951C14.91 15.1799 15.5675 14.2026 15.5675 12.9768C15.5675 11.0044 14.1283 9.26318 11.4276 9.26318C9.22437 9.26318 6.9856 10.8091 6.9856 13.4919H9.66858C9.65076 12.6392 10.3615 11.9106 11.4276 11.9106C12.2627 11.9106 12.8845 12.4436 12.8668 13.2078C12.849 14.0073 12.3514 14.5757 11.2144 14.5757H10.2549V16.7258H11.3564C12.4937 16.7258 13.2399 17.3477 13.2222 18.2537C13.2043 19.0889 12.5292 19.6396 11.4808 19.6396C10.3259 19.6396 9.52637 19.0889 9.40198 17.9338H6.73682C6.82568 20.8301 9.1355 22.2871 11.4808 22.2871ZM22.3986 12.7058H23.8127L19.7072 19.2942H18.293L22.3986 12.7058ZM25.2634 17.5403C25.2634 18.5425 24.4514 19.3684 23.4661 19.3684C22.4716 19.3684 21.6687 18.5425 21.6687 17.5403C21.6687 16.5288 22.4716 15.7124 23.4661 15.7124C24.4514 15.7124 25.2634 16.5288 25.2634 17.5403ZM20.437 14.4595C20.437 15.4617 19.625 16.2876 18.6396 16.2876C17.6451 16.2876 16.8423 15.4617 16.8423 14.4595C16.8423 13.4482 17.6451 12.6316 18.6396 12.6316C19.625 12.6316 20.437 13.4482 20.437 14.4595Z" fill="#FBFBFC"></path> </svg> 