<?xml version="1.0" encoding="UTF-8"?> <svg xmlns="http://www.w3.org/2000/svg" width="99" height="32" viewBox="0 0 99 32" fill="none"> <path d="M39.1111 21.5681H42.3325V17.6214H46.3431V21.5681H49.5645V10.9014H46.3431V14.8267H42.3325V10.9014H39.1111V21.5681Z" fill="black"></path> <path d="M56.5246 21.8027C57.9753 21.8027 58.9566 21.0774 59.426 20.5014V21.5681H62.6473V10.9014H59.426V11.9681C58.9566 11.3921 57.9753 10.6667 56.5246 10.6667C53.73 10.6667 51.5753 13.2267 51.5753 16.2347C51.5753 19.2427 53.73 21.8027 56.5246 21.8027ZM57.25 18.8801C55.7993 18.8801 54.818 17.7707 54.818 16.2347C54.818 14.6987 55.7993 13.5894 57.25 13.5894C58.7006 13.5894 59.682 14.6987 59.682 16.2347C59.682 17.7707 58.7006 18.8801 57.25 18.8801Z" fill="black"></path> <path d="M65.8746 21.8027C67.752 21.8027 69.672 20.5867 69.672 17.5574V13.6961H72.5946V21.5681H75.816V10.9014H66.4506V17.2161C66.4506 18.6667 65.96 19.0081 65.128 19.0081C64.8933 19.0081 64.616 18.9867 64.3813 18.9654V21.6961C64.7866 21.7814 65.2133 21.8027 65.8746 21.8027Z" fill="black"></path> <path d="M83.4146 21.8027C86.4866 21.8027 89.0253 19.3707 89.0253 16.2347C89.0253 13.0987 86.4866 10.6667 83.4146 10.6667C80.3426 10.6667 77.804 13.0987 77.804 16.2347C77.804 19.3707 80.3426 21.8027 83.4146 21.8027ZM83.4146 18.7947C82.0493 18.7947 81.0466 17.7707 81.0466 16.2347C81.0466 14.6987 82.0493 13.6747 83.4146 13.6747C84.78 13.6747 85.7826 14.6987 85.7826 16.2347C85.7826 17.7707 84.78 18.7947 83.4146 18.7947Z" fill="black"></path> <path d="M91.007 21.5681H94.2283V13.6961H98.5376V10.9014H91.007V21.5681Z" fill="black"></path> <circle cx="16" cy="16" r="16" fill="#E64456"></circle> <path d="M11.4808 22.2871C14.1282 22.2871 15.9228 20.688 15.9228 18.4848C15.9228 17.0455 15.1055 16.1216 14.2526 15.6952C14.91 15.1799 15.5674 14.2027 15.5674 12.9767C15.5674 11.0044 14.1282 9.26318 11.4275 9.26318C9.22427 9.26318 6.98551 10.809 6.98551 13.492H9.66847C9.6507 12.6391 10.3614 11.9106 11.4275 11.9106C12.2626 11.9106 12.8845 12.4436 12.8667 13.2077C12.8489 14.0072 12.3514 14.5758 11.2143 14.5758H10.2548V16.7257H11.3564C12.4936 16.7257 13.2398 17.3476 13.2221 18.2538C13.2043 19.0889 12.5291 19.6397 11.4808 19.6397C10.3259 19.6397 9.52632 19.0889 9.40195 17.9339H6.73676C6.8256 20.8301 9.13543 22.2871 11.4808 22.2871Z" fill="white"></path> <path d="M19.7071 19.2942L23.8127 12.7058H22.3985L18.2929 19.2942H19.7071ZM23.466 19.3684C24.4513 19.3684 25.2633 18.5426 25.2633 17.5404C25.2633 16.5289 24.4513 15.7124 23.466 15.7124C22.4715 15.7124 21.6687 16.5289 21.6687 17.5404C21.6687 18.5426 22.4715 19.3684 23.466 19.3684ZM23.466 18.1992C23.1102 18.1992 22.8273 17.9023 22.8273 17.5404C22.8273 17.1785 23.1102 16.8816 23.466 16.8816C23.8218 16.8816 24.0955 17.1785 24.0955 17.5404C24.0955 17.9023 23.8218 18.1992 23.466 18.1992ZM18.6396 16.2877C19.625 16.2877 20.437 15.4618 20.437 14.4596C20.437 13.4482 19.625 12.6316 18.6396 12.6316C17.6452 12.6316 16.8423 13.4482 16.8423 14.4596C16.8423 15.4618 17.6452 16.2877 18.6396 16.2877ZM18.6396 15.1185C18.2747 15.1185 18.001 14.8215 18.001 14.4596C18.001 14.0977 18.2747 13.8008 18.6396 13.8008C18.9954 13.8008 19.2692 14.0977 19.2692 14.4596C19.2692 14.8215 18.9954 15.1185 18.6396 15.1185Z" fill="white"></path> </svg> 