<?xml version="1.0" encoding="UTF-8"?> <svg xmlns="http://www.w3.org/2000/svg" width="47" height="36" viewBox="0 0 47 36" fill="none"> <path d="M45.9898 19.6721L38.9019 3.96062C38.7408 3.5983 38.3831 3.36465 37.9882 3.36465H27.3467C26.8431 1.38454 25.0706 0 23.04 0C21.0094 0 19.2369 1.38454 18.7333 3.36465H8.09176C7.70314 3.35676 7.34627 3.57778 7.17804 3.93023L0.0902023 19.6318C0.0360846 19.7739 0.00588859 19.9243 6.24006e-06 20.0762C-0.00548395 24.574 3.61255 28.2244 8.08157 28.2299C12.5506 28.2354 16.1776 24.5941 16.1831 20.0963C16.1843 19.9535 16.1533 19.8118 16.0929 19.6823L9.64784 5.38542H18.6929C19.0455 7.08688 20.3518 8.42564 22.0361 8.81045V29.7356H17.5584C15.8247 29.7526 14.4235 31.1632 14.4063 32.9081V35.0299C14.4063 35.5856 14.8882 36 15.4502 36H30.5294C31.0815 36 31.5733 35.5856 31.5733 35.0299V32.9081C31.5561 31.1632 30.1549 29.7526 28.4212 29.7356H24.0439V8.81045C25.7247 8.41893 27.0278 7.08333 27.387 5.38542H36.4321L29.987 19.6823C29.9274 19.8122 29.8968 19.9535 29.8968 20.0963C29.8968 24.5941 33.5196 28.2402 37.9882 28.2402C42.4572 28.2402 46.08 24.5941 46.08 20.0963C46.0811 19.9499 46.0502 19.8051 45.9898 19.6721ZM8.09176 6.86034L13.6231 19.1266H2.56L8.09176 6.86034ZM8.09176 26.2597C5.08 26.2597 2.5702 23.9765 2.08824 21.1474H14.0851C13.6133 23.9765 11.1035 26.2597 8.09176 26.2597ZM29.5655 32.9081V33.9792H16.4141V32.9081C16.4278 32.2778 16.9325 31.7702 17.5584 31.7564H28.4212C29.0474 31.7702 29.5517 32.2778 29.5655 32.9081ZM23.04 6.91086C21.6984 6.91086 20.6106 5.81641 20.6106 4.46581C20.6106 3.11561 21.6984 2.02076 23.04 2.02076C24.3819 2.02076 25.4694 3.11561 25.4694 4.46581C25.4682 5.81562 24.3812 6.90967 23.04 6.91086ZM43.52 19.1266H32.4568L37.9882 6.86034L43.52 19.1266ZM37.9882 26.2597C34.9764 26.2597 32.4666 23.9765 31.9851 21.1474H43.9819C43.5098 23.9765 41 26.2597 37.9882 26.2597Z" fill="#E64456"></path> </svg> 