<?xml version="1.0" encoding="UTF-8"?> <svg xmlns="http://www.w3.org/2000/svg" width="30" height="40" viewBox="0 0 30 40" fill="none"> <path d="M15.0002 40C14.8135 40 14.6255 39.9585 14.4533 39.8731C6.54548 36.0229 0 31.8676 0 19.9997V6.24952C0 5.72339 0.328348 5.25461 0.822757 5.07519L14.573 0.075065C14.8488 -0.0250217 15.1516 -0.0250217 15.4274 0.075065L29.1776 5.07512C29.672 5.25453 30.0004 5.72332 30.0004 6.24945V19.9996C30.0004 31.8675 23.4549 36.0228 15.547 39.873C15.375 39.9585 15.187 40 15.0002 40ZM2.50006 7.12475V19.9997C2.50006 29.3248 6.70907 33.2421 15.0002 37.3559C23.2914 33.2421 27.5004 29.3248 27.5004 19.9997V7.12475L15.0002 2.57999L2.50006 7.12475Z" fill="#E64456"></path> <path d="M14.1165 24.9997L8.23264 19.1158L10.0002 17.3483L14.1165 21.4645L21.9828 13.5982L23.7504 15.3658L14.1165 24.9997Z" fill="#E64456"></path> </svg> 